<svg xmlns="http://www.w3.org/2000/svg" viewBox="0 0 1200 900" role="img" aria-labelledby="t"><title id="t">Cover art: five numbered nested arcs forming a gauge</title>
<rect width="1200" height="900" fill="#0f1626"/>
<path d="M460 720 A140 140 0 0 1 740 720" fill="none" stroke="#cdb88f" stroke-width="3" stroke-opacity="0.35"/><circle cx="460" cy="720" r="20" fill="#0f1626" stroke="#cdb88f" stroke-width="3"/><text x="460" y="728" text-anchor="middle" font-family="Georgia, serif" font-size="24" fill="#f4f1ea">1</text><path d="M390 720 A210 210 0 0 1 810 720" fill="none" stroke="#cdb88f" stroke-width="3" stroke-opacity="0.50"/><circle cx="390" cy="720" r="20" fill="#0f1626" stroke="#cdb88f" stroke-width="3"/><text x="390" y="728" text-anchor="middle" font-family="Georgia, serif" font-size="24" fill="#f4f1ea">2</text><path d="M320 720 A280 280 0 0 1 880 720" fill="none" stroke="#cdb88f" stroke-width="3" stroke-opacity="0.65"/><circle cx="320" cy="720" r="20" fill="#0f1626" stroke="#cdb88f" stroke-width="3"/><text x="320" y="728" text-anchor="middle" font-family="Georgia, serif" font-size="24" fill="#f4f1ea">3</text><path d="M250 720 A350 350 0 0 1 950 720" fill="none" stroke="#cdb88f" stroke-width="3" stroke-opacity="0.80"/><circle cx="250" cy="720" r="20" fill="#0f1626" stroke="#cdb88f" stroke-width="3"/><text x="250" y="728" text-anchor="middle" font-family="Georgia, serif" font-size="24" fill="#f4f1ea">4</text><path d="M180 720 A420 420 0 0 1 1020 720" fill="none" stroke="#f4f1ea" stroke-width="6" stroke-opacity="0.95"/><circle cx="180" cy="720" r="20" fill="#0f1626" stroke="#cdb88f" stroke-width="3"/><text x="180" y="728" text-anchor="middle" font-family="Georgia, serif" font-size="24" fill="#f4f1ea">5</text>
<line x1="600" y1="720" x2="868" y2="397" stroke="#f4f1ea" stroke-width="4" stroke-linecap="round"/>
<circle cx="600" cy="720" r="14" fill="#cdb88f"/>
<line x1="60" y1="720" x2="1140" y2="720" stroke="#8d95a6" stroke-opacity=".35" stroke-width="2"/>
</svg>
